# xmcd
#
# Track frame offsets: 
#        150
#        17903
#        38954
#        58058
#        76667
#        98314
#        118968
#        137166
#        152679
#        168972
#        186397
#
# Disc length: 2738 seconds
#
# Revision: 0
# Processed by: cddbd v1.5.1PL2 Copyright (c) Steve Scherf et al.
# Submitted via: ExactAudioCopy v0.95b4
#
DISCID=890ab00b
DTITLE=Игорь Кабаргин - Столичный шансон
DYEAR=2005
DGENRE=Chanson
TTITLE0=Черёмуха белая
TTITLE1=Кафе Шансон
TTITLE2=На тревожной версте
TTITLE3=Зелёный огонёк
TTITLE4=ВОлк
TTITLE5=Журавлиная песня
TTITLE6=Душа
TTITLE7=По весне я вернусь
TTITLE8=Морская
TTITLE9=Городские сады
TTITLE10=Ты меня не вини
EXTD=
EXTT0=
EXTT1=
EXTT2=
EXTT3=
EXTT4=
EXTT5=
EXTT6=
EXTT7=
EXTT8=
EXTT9=
EXTT10=
PLAYORDER=
